<svg width="29" height="29" viewBox="0 0 29 29" fill="none" xmlns="http://www.w3.org/2000/svg">
<g opacity="0.7">
<path fill-rule="evenodd" clip-rule="evenodd" d="M22.0018 14.4721C22.0018 14.9463 21.5912 15.3308 21.0848 15.3308H9.23742L12.563 18.4443C12.9212 18.7796 12.9212 19.3232 12.5631 19.6585C12.205 19.9939 11.6244 19.9939 11.2662 19.6586L6.375 15.0793C6.20301 14.9183 6.10638 14.6999 6.10638 14.4721C6.10638 14.2444 6.20301 14.026 6.375 13.865L11.2662 9.28569C11.6244 8.95039 12.205 8.95042 12.5631 9.28575C12.9212 9.6211 12.9212 10.1647 12.563 10.5L9.23742 13.6135H21.0848C21.5912 13.6135 22.0018 13.9979 22.0018 14.4721Z" fill="#F5CE3C"/>
<path d="M14.4722 0.999998C7.03171 0.999998 0.999998 7.03171 0.999998 14.4722C0.999998 21.9127 7.03171 27.9444 14.4722 27.9444C21.9127 27.9444 27.9444 21.9127 27.9444 14.4722C27.9444 7.03171 21.9127 0.999998 14.4722 0.999998Z" stroke="#F5CE3C" stroke-width="1.5"/>
</g>
</svg>
