<svg width="29" height="29" viewBox="0 0 29 29" fill="none" xmlns="http://www.w3.org/2000/svg">
<g opacity="0.7">
<path fill-rule="evenodd" clip-rule="evenodd" d="M6.94257 14.4722C6.94257 13.998 7.35313 13.6136 7.85959 13.6136H19.7069L16.3813 10.5001C16.0232 10.1648 16.0232 9.6211 16.3813 9.28579C16.7394 8.95046 17.32 8.95043 17.6781 9.28572L22.5694 13.865C22.7414 14.026 22.838 14.2444 22.838 14.4722C22.838 14.6999 22.7414 14.9183 22.5694 15.0793L17.6781 19.6586C17.32 19.9939 16.7394 19.9939 16.3813 19.6586C16.0232 19.3232 16.0232 18.7796 16.3813 18.4443L19.7069 15.3308H7.85959C7.35313 15.3308 6.94257 14.9464 6.94257 14.4722Z" fill="#F5CE3C"/>
<path d="M14.4722 27.9444C21.9127 27.9444 27.9444 21.9127 27.9444 14.4722C27.9444 7.03171 21.9127 1 14.4722 1C7.03171 1 1 7.03171 1 14.4722C1 21.9127 7.03171 27.9444 14.4722 27.9444Z" stroke="#F5CE3C" stroke-width="1.5"/>
</g>
</svg>
