<svg width="453" height="115" viewBox="0 0 453 115" fill="none" xmlns="http://www.w3.org/2000/svg">
<path d="M3.33333 3.43398C1.46667 5.16732 0 7.83398 0 9.43398C0 10.9007 1.46667 13.7007 3.33333 15.434C6.53333 18.7673 6.53333 18.7673 35.3333 18.7673C66.2667 18.7673 70 19.434 72.9333 25.7007C75.7333 31.5673 76 33.5673 74 38.5007C70.4 47.5673 68 48.1007 35.4667 48.1007H6.53333L3.33333 51.434C0 54.634 0 54.7673 0 81.1673C0 105.034 0.266667 108.101 2.4 110.901C5.86667 115.034 12.8 115.034 16.2667 110.901C18.4 108.234 18.6667 105.301 18.6667 87.3007V66.7673H40.8C52.9333 66.7673 65.3333 66.1007 68.4 65.3007C76 63.434 83.7333 57.834 88.6667 50.9007C92.4 45.5673 92.6667 44.3673 92.6667 33.5673C92.6667 23.1673 92.2667 21.3007 89.0667 16.5007C87.0667 13.434 83.3333 9.30065 80.6667 7.43398C72.1333 0.90065 68.2667 0.233984 36.2667 0.10065H6.53333L3.33333 3.43398Z" fill="#2D79C7"/>
<path d="M158.533 2.63397C156.667 4.10063 145.067 25.7006 130.667 54.5006C108.533 99.034 106.267 104.367 107.467 107.701C109.067 112.501 114.533 115.301 119.2 113.434C122 112.367 126.4 104.634 143.2 71.1673L163.6 30.1006L183.867 70.3673C197.467 97.5673 205.067 111.434 207.2 112.901C212.933 116.501 220 112.367 220 105.301C220 100.101 171.6 3.43397 168.133 1.43397C164.4 -0.566034 162.133 -0.299367 158.533 2.63397Z" fill="#2D79C7"/>
<path d="M236.667 3.43397C230.667 9.30063 230.533 9.30063 257.6 42.5006L272 60.3673V84.634C272 110.767 272.4 112.634 278.8 114.101C281.333 114.767 283.2 114.101 285.733 111.834C289.2 108.767 289.2 108.501 290.133 84.1006L291.067 59.434L308.667 36.7673C318.267 24.234 326.533 13.1673 326.933 11.9673C327.333 10.9006 326.933 8.10063 326 5.70063C324 1.03397 319.067 -0.966034 314.8 1.30063C313.333 2.10063 305.333 11.3006 297.2 21.834C289.067 32.234 281.867 40.9006 281.333 41.1673C280.8 41.3006 273.333 32.7673 264.667 22.1006C245.333 -1.76603 243.2 -3.2327 236.667 3.43397Z" fill="#2D79C7"/>
<path d="M389.333 1.43399C370.8 3.70066 350.8 19.1673 344.533 36.234C334.267 64.5007 346.267 94.634 373.067 108.367C381.467 112.634 382.4 112.767 397.2 112.767C411.6 112.767 413.2 112.501 420.667 108.901C425.6 106.501 432 101.567 437.333 96.1007C449.333 84.1007 452.667 75.434 452.667 56.7673C452.533 38.234 449.467 30.9007 436.8 18.1007C428.933 10.1007 425.733 7.96732 418 5.03399C407.6 1.16733 400.133 0.233992 389.333 1.43399ZM414.4 22.9007C423.067 27.1673 427.6 31.7007 432.4 40.634C436.4 48.1007 436.533 66.3673 432.8 73.434C428 82.5007 422.533 87.9673 414.4 91.9673C384.667 106.901 352 80.1007 359.867 47.1673C363.733 31.034 380 18.7673 397.333 18.7673C404.667 18.7673 407.733 19.5673 414.4 22.9007Z" fill="#F0DB4F"/>
</svg>
